<?xml version="1.0" encoding="utf-8"?>
<!-- Generator: Adobe Illustrator 16.0.4, SVG Export Plug-In . SVG Version: 6.00 Build 0)  -->
<!DOCTYPE svg PUBLIC "-//W3C//DTD SVG 1.1//EN" "http://www.w3.org/Graphics/SVG/1.1/DTD/svg11.dtd">
<svg version="1.1" id="Layer_1" xmlns="http://www.w3.org/2000/svg" xmlns:xlink="http://www.w3.org/1999/xlink" x="0px" y="0px"
	 width="317.217px" height="299.274px" viewBox="0 0 317.217 299.274" enable-background="new 0 0 317.217 299.274"
	 xml:space="preserve">
<text transform="matrix(0.7028 0 0 1 6.4058 155.0264)" opacity="0.8" fill="#FFFFFF" font-family="'HelveticaNeue-ExtBlackCond'" font-size="144.6116">berbert</text>
<g>
	<path d="M9.28,236.272c0.044,1.053,0.379,2.045,0.998,2.981c0.622,0.938,1.527,1.406,2.721,1.406c1.147,0,1.974-0.453,2.48-1.361
		c0.503-0.907,0.758-2.061,0.758-3.467v-8.772h-0.14c-0.78,1.459-1.711,2.586-2.789,3.378c-1.08,0.789-2.331,1.185-3.753,1.185
		c-2.893,0-4.935-1.404-6.128-4.212c-0.414-0.995-0.713-2.223-0.896-3.685c-0.184-1.462-0.276-3.423-0.276-5.88v-16.935
		c0-3.215,0.069-5.586,0.208-7.108c0.136-1.521,0.434-2.748,0.892-3.685c0.598-1.167,1.369-2.133,2.311-2.896
		c0.939-0.76,2.258-1.14,3.958-1.14c0.872,0,1.618,0.118,2.238,0.351c0.619,0.234,1.183,0.557,1.687,0.966
		c0.506,0.409,0.966,0.89,1.377,1.449c0.414,0.557,0.851,1.153,1.311,1.795v-4.035h7.023v49.928c0,1.52-0.195,3.056-0.587,4.607
		c-0.39,1.547-1.021,2.951-1.894,4.21c-0.873,1.258-1.974,2.282-3.306,3.073c-1.33,0.787-2.913,1.183-4.751,1.183
		c-1.057,0-2.158-0.221-3.304-0.657c-1.146-0.44-2.215-1.171-3.202-2.195c-0.987-1.023-1.838-2.383-2.549-4.08
		c-0.713-1.696-1.182-3.831-1.412-6.404H9.28z M9.28,217.406c0,1.405,0.241,2.633,0.723,3.686c0.48,1.054,1.388,1.579,2.719,1.579
		c1.011,0,1.847-0.452,2.514-1.359c0.665-0.905,1-2.062,1-3.466v-17.285c0-1.637-0.323-2.967-0.967-3.993
		c-0.642-1.023-1.491-1.535-2.548-1.535c-1.192,0-2.065,0.557-2.617,1.667c-0.551,1.111-0.826,2.578-0.826,4.387V217.406z"/>
	<path d="M29.042,186.608h7.025v4.737c1.42-1.635,2.821-2.925,4.199-3.859c1.377-0.937,3.076-1.403,5.095-1.403v9.477
		c-0.687-0.352-1.399-0.527-2.133-0.527c-0.735,0-1.528,0.163-2.376,0.48c-0.85,0.324-1.63,0.867-2.342,1.627
		c-0.712,0.758-1.299,1.753-1.756,2.98c-0.459,1.229-0.688,2.752-0.688,4.565v26.409h-7.025V186.608z"/>
	<path d="M61.065,226.534h-0.137c-0.919,1.639-1.849,2.895-2.789,3.771c-0.942,0.878-2.262,1.316-3.96,1.316
		c-0.826,0-1.677-0.163-2.547-0.48c-0.873-0.324-1.687-0.91-2.443-1.758c-0.759-0.845-1.381-2.045-1.861-3.597
		c-0.48-1.549-0.722-3.553-0.722-6.012c0-2.513,0.159-4.722,0.482-6.624c0.32-1.9,0.905-3.48,1.756-4.739
		c0.848-1.257,1.985-2.193,3.408-2.808c1.423-0.613,3.237-0.919,5.441-0.919c0.503,0,1.008,0.028,1.516,0.087
		c0.503,0.058,1.123,0.118,1.857,0.174v-4.647c0-1.524-0.253-2.778-0.758-3.773c-0.504-0.995-1.424-1.493-2.754-1.493
		c-0.918,0-1.756,0.382-2.515,1.142c-0.757,0.761-1.25,1.872-1.479,3.334h-6.816c0.229-4.038,1.284-7.253,3.167-9.651
		c0.917-1.169,2.019-2.09,3.304-2.766c1.285-0.671,2.73-1.008,4.339-1.008c1.471,0,2.846,0.295,4.133,0.876
		c1.283,0.586,2.396,1.462,3.339,2.634c0.941,1.171,1.687,2.631,2.24,4.389c0.55,1.752,0.825,3.8,0.825,6.139v30.975h-7.024V226.534
		z M61.065,211.967c-0.78-0.177-1.424-0.264-1.928-0.264c-1.515,0-2.813,0.453-3.891,1.358c-1.079,0.91-1.617,2.562-1.617,4.959
		c0,1.697,0.321,3.071,0.963,4.125c0.643,1.053,1.538,1.58,2.685,1.58c1.194,0,2.125-0.498,2.791-1.491
		c0.665-0.994,0.997-2.398,0.997-4.214V211.967z"/>
	<path d="M73.252,186.608h7.025v4.035c0.873-1.286,1.767-2.368,2.685-3.244c0.92-0.876,2.25-1.316,3.995-1.316
		c2.892,0,4.935,1.403,6.129,4.214c0.412,0.992,0.709,2.22,0.894,3.685c0.184,1.46,0.275,3.42,0.275,5.877v16.935
		c0,3.22-0.067,5.587-0.206,7.107s-0.437,2.75-0.894,3.687c-0.598,1.167-1.367,2.135-2.307,2.893c-0.94,0.76-2.262,1.143-3.96,1.143
		c-1.376,0-2.606-0.396-3.685-1.185c-1.079-0.792-2.01-1.919-2.789-3.378h-0.138v22.024h-7.025V186.608z M87.234,201.086
		c0-1.809-0.276-3.275-0.827-4.387c-0.552-1.11-1.423-1.667-2.616-1.667c-1.059,0-1.907,0.512-2.548,1.535
		c-0.643,1.026-0.965,2.356-0.965,3.993v17.285c0,1.404,0.332,2.561,1,3.466c0.665,0.907,1.503,1.359,2.514,1.359
		c1.332,0,2.238-0.525,2.72-1.579c0.483-1.053,0.723-2.28,0.723-3.686V201.086z"/>
	<path d="M100.041,168.623h7.024v22.286h0.139c0.735-1.406,1.619-2.56,2.649-3.467c1.036-0.906,2.353-1.359,3.959-1.359
		c0.875,0,1.75,0.189,2.619,0.572c0.874,0.378,1.652,1.006,2.339,1.885c0.692,0.876,1.241,2.003,1.657,3.378
		c0.411,1.375,0.618,3.056,0.618,5.046v34.131h-7.023v-30.796c0-1.637-0.301-2.927-0.896-3.863
		c-0.596-0.935-1.446-1.403-2.546-1.403c-1.333,0-2.25,0.527-2.754,1.578c-0.509,1.055-0.76,2.577-0.76,4.565v29.919h-7.024V168.623
		z"/>
	<path d="M126.829,168.623h7.027v8.946h-7.027V168.623z M126.829,186.608h7.027v44.486h-7.027V186.608z"/>
	<path d="M147.078,218.284c0,1.406,0.308,2.488,0.928,3.248c0.618,0.759,1.457,1.139,2.514,1.139c1.333,0,2.215-0.497,2.65-1.491
		c0.438-0.993,0.697-1.987,0.793-2.982h7.022c0,1.871-0.239,3.628-0.721,5.265c-0.481,1.637-1.181,3.043-2.1,4.21
		c-0.921,1.229-2.023,2.193-3.309,2.897c-1.281,0.702-2.731,1.053-4.337,1.053c-2.16,0-4.02-0.586-5.58-1.757
		c-1.558-1.167-2.751-2.719-3.578-4.648c-0.506-1.169-0.851-2.515-1.034-4.037c-0.183-1.519-0.274-3.186-0.274-5.001v-14.652
		c0-1.813,0.091-3.48,0.274-5.001c0.184-1.522,0.528-2.868,1.034-4.035c0.827-1.932,2.02-3.483,3.578-4.654
		c1.561-1.168,3.42-1.753,5.58-1.753c1.606,0,3.064,0.351,4.372,1.053c1.308,0.7,2.414,1.684,3.305,2.939
		c0.895,1.257,1.587,2.764,2.068,4.519c0.481,1.755,0.721,3.657,0.721,5.705h-7.022c0-1.815-0.306-3.146-0.929-3.995
		c-0.622-0.847-1.458-1.271-2.515-1.271c-1.058,0-1.896,0.425-2.514,1.271c-0.62,0.85-0.928,2.119-0.928,3.816V218.284z"/>
</g>
<g>
	<path d="M189.646,225.921c-0.465,0.64-0.904,1.239-1.319,1.796c-0.42,0.554-0.881,1.037-1.391,1.446
		c-0.511,0.411-1.089,0.733-1.736,0.966c-0.651,0.232-1.415,0.351-2.295,0.351c-2.917,0-4.979-1.404-6.184-4.21
		c-0.416-0.992-0.719-2.222-0.903-3.688c-0.185-1.457-0.276-3.42-0.276-5.875V199.77c0-3.213,0.068-5.585,0.206-7.107
		c0.141-1.521,0.442-2.747,0.906-3.685c0.6-1.169,1.375-2.133,2.326-2.895c0.949-0.761,2.282-1.141,3.996-1.143
		c1.39,0.002,2.627,0.396,3.716,1.187c1.089,0.787,2.026,1.916,2.814,3.376h0.14v-22.021l7.086-0.002v62.474h-7.089L189.646,225.921
		z M182.628,215.477c0,1.812,0.276,3.275,0.833,4.389c0.556,1.108,1.435,1.667,2.641,1.667c1.063,0,1.921-0.512,2.57-1.538
		c0.647-1.021,0.971-2.352,0.971-3.992v-17.286c0.003-1.401-0.335-2.558-1.007-3.463c-0.671-0.907-1.517-1.361-2.534-1.361
		c-1.345,0-2.26,0.527-2.743,1.578c-0.488,1.054-0.73,2.283-0.73,3.687V215.477z"/>
	<path d="M209.028,211.09v6.055c0,1.401,0.314,2.483,0.936,3.246c0.627,0.76,1.472,1.142,2.538,1.142
		c1.343,0,2.234-0.498,2.674-1.49c0.44-0.995,0.707-1.99,0.8-2.985l7.086-0.002c0,1.873-0.242,3.629-0.73,5.265
		c-0.484,1.642-1.192,3.043-2.116,4.212c-0.928,1.228-2.04,2.193-3.336,2.897c-1.297,0.7-2.756,1.051-4.377,1.051
		c-2.178,0-4.054-0.583-5.629-1.755c-1.574-1.172-2.777-2.721-3.612-4.647c-0.51-1.172-0.857-2.518-1.043-4.038
		c-0.184-1.52-0.276-3.186-0.276-5.003l0.001-14.652c0-1.811,0.091-3.48,0.275-4.999c0.186-1.522,0.533-2.868,1.043-4.037
		c0.833-1.93,2.038-3.48,3.612-4.652c1.575-1.169,3.451-1.753,5.627-1.753c1.623,0,3.092,0.352,4.416,1.053
		c1.316,0.7,2.43,1.684,3.333,2.94c0.902,1.256,1.598,2.731,2.082,4.429c0.488,1.696,0.73,3.512,0.73,5.441v12.284H209.028z
		 M209.028,204.068h6.947v-5.089c0-1.696-0.314-2.966-0.938-3.815c-0.625-0.848-1.472-1.272-2.535-1.272
		c-1.066,0-1.911,0.425-2.538,1.272c-0.621,0.85-0.936,2.119-0.936,3.815V204.068z"/>
	<path d="M241.126,197.93c-0.046-1.522-0.427-2.663-1.146-3.423c-0.72-0.761-1.54-1.141-2.467-1.143
		c-1.111,0-1.969,0.454-2.571,1.359c-0.604,0.907-0.9,1.947-0.9,3.116c0,0.822,0.159,1.623,0.483,2.412
		c0.323,0.791,1.157,1.509,2.502,2.15l4.169,2.106c2.64,1.29,4.456,3.042,5.455,5.265c0.995,2.225,1.493,4.65,1.493,7.283
		c-0.001,1.871-0.266,3.613-0.799,5.221c-0.534,1.607-1.266,3.026-2.191,4.254c-0.923,1.228-2.035,2.193-3.335,2.897
		c-1.297,0.7-2.71,1.051-4.237,1.051c-1.389,0-2.711-0.295-3.96-0.879c-1.249-0.581-2.351-1.433-3.302-2.544
		c-0.945-1.108-1.722-2.497-2.327-4.165c-0.602-1.667-0.926-3.61-0.971-5.837l6.672,0.002c0.139,1.228,0.472,2.368,1.005,3.421
		c0.533,1.055,1.47,1.58,2.814,1.58c1.017,0,1.934-0.425,2.746-1.271c0.809-0.85,1.213-2.034,1.214-3.555
		c0-1.229-0.256-2.28-0.766-3.156c-0.51-0.881-1.436-1.642-2.777-2.285l-3.406-1.578c-2.22-1.054-3.971-2.616-5.245-4.695
		c-1.275-2.072-1.91-4.605-1.91-7.587c0-1.874,0.279-3.613,0.834-5.223c0.557-1.607,1.31-2.984,2.258-4.123
		c0.948-1.14,2.051-2.032,3.3-2.676c1.252-0.644,2.595-0.968,4.03-0.968c1.437,0.002,2.769,0.34,3.997,1.011
		c1.225,0.673,2.28,1.578,3.161,2.721c0.88,1.14,1.572,2.515,2.083,4.12c0.51,1.611,0.765,3.324,0.765,5.138H241.126z"/>
	<path d="M252.727,167.48l7.091,0.002l-0.004,8.947l-7.087,0.002V167.48z M252.727,185.468h7.087v44.486h-7.087V185.468z"/>
	<path d="M272.737,235.127c0.046,1.056,0.383,2.051,1.007,2.987c0.626,0.935,1.54,1.401,2.745,1.401c1.158,0,1.991-0.453,2.5-1.359
		c0.51-0.907,0.765-2.061,0.765-3.465v-8.772h-0.138c-0.789,1.462-1.725,2.587-2.814,3.374c-1.09,0.791-2.351,1.187-3.788,1.187
		c-2.915,0-4.976-1.404-6.181-4.21c-0.417-0.992-0.723-2.222-0.906-3.687c-0.184-1.459-0.278-3.422-0.278-5.877V199.77
		c0.002-3.213,0.071-5.585,0.21-7.107c0.142-1.521,0.439-2.747,0.903-3.685c0.601-1.169,1.376-2.133,2.327-2.895
		c0.95-0.761,2.279-1.141,3.995-1.141c0.877-0.002,1.633,0.116,2.258,0.352c0.627,0.234,1.192,0.557,1.701,0.963
		c0.509,0.409,0.974,0.893,1.393,1.449c0.415,0.559,0.855,1.155,1.318,1.797v-4.035h7.089v49.928c0,1.519-0.198,3.052-0.591,4.604
		c-0.395,1.552-1.034,2.953-1.913,4.214c-0.879,1.257-1.992,2.28-3.333,3.069c-1.345,0.792-2.941,1.185-4.793,1.188
		c-1.068-0.003-2.179-0.222-3.338-0.662c-1.155-0.436-2.233-1.169-3.231-2.193c-0.994-1.023-1.85-2.383-2.569-4.077
		c-0.718-1.699-1.193-3.834-1.424-6.407L272.737,235.127z M272.737,216.268c0,1.404,0.24,2.632,0.73,3.685
		c0.485,1.051,1.399,1.58,2.745,1.58c1.018,0,1.862-0.453,2.533-1.361c0.673-0.907,1.008-2.061,1.008-3.465v-17.288
		c0-1.634-0.325-2.964-0.971-3.99c-0.651-1.024-1.506-1.536-2.57-1.536c-1.208,0-2.087,0.555-2.643,1.668
		c-0.557,1.108-0.833,2.575-0.833,4.389V216.268z"/>
	<path d="M292.675,185.468h7.09v4.302h0.137c0.74-1.406,1.633-2.561,2.677-3.468c1.041-0.905,2.37-1.359,3.993-1.361
		c0.879,0,1.762,0.192,2.641,0.572s1.669,1.008,2.361,1.887c0.694,0.876,1.25,2.006,1.669,3.378
		c0.415,1.373,0.625,3.057,0.625,5.044v34.133h-7.087v-30.798c0-1.634-0.302-2.924-0.905-3.86c-0.601-0.935-1.457-1.404-2.565-1.404
		c-1.346,0-2.272,0.527-2.781,1.578c-0.512,1.056-0.764,2.576-0.764,4.563v29.921h-7.09V185.468z"/>
</g>
<g opacity="0.7">
	<path fill="#FFFFFF" stroke="#FFFFFF" stroke-width="2" stroke-miterlimit="10" d="M175.368,214.405
		c-0.963,1.914-1.751,3.78-2.364,5.599c-0.615,1.817-1.586,5.437-2.913,10.854c-2.259,9.28-4.167,15.575-5.728,18.887
		c-2.158,4.511-5.327,8.683-9.508,12.51c4.213,4.51,7.501,7.416,9.858,8.713c2.355,1.296,4.697,1.949,7.021,1.949
		c2.587,0,4.779-0.709,6.572-2.119c1.793-1.411,2.689-2.944,2.689-4.599c0-0.617-0.199-1.429-0.598-2.435
		c-0.433-1.136-0.648-1.979-0.648-2.533c0-0.905,0.284-1.646,0.849-2.213c0.564-0.566,1.278-0.853,2.142-0.853
		c0.929,0,1.691,0.336,2.288,1c0.598,0.663,0.896,1.613,0.896,2.846c0,3.829-1.601,7.212-4.805,10.149
		c-3.203,2.938-6.979,4.404-11.329,4.404c-1.925,0-3.843-0.349-5.751-1.047c-1.909-0.697-3.726-1.728-5.454-3.089
		c-1.162-0.941-3.485-3.392-6.972-7.351c-5.279,4.089-10.919,6.132-16.93,6.132c-6.607,0-12.068-2.043-16.385-6.132
		c-4.313-4.089-6.471-9.169-6.471-15.236c0-5.873,2.09-10.855,6.275-14.944c4.182-4.089,9.159-6.133,14.936-6.133
		c3.155,0,5.536,0.602,7.147,1.8c1.612,1.203,2.414,2.613,2.414,4.236c0,3.7-3.451,6.345-10.354,7.933
		c2.958,1.104,5.735,2.695,8.33,4.772c3.381,2.66,7.378,6.667,11.985,12.023c1.426-1.657,2.606-3.253,3.536-4.796
		c0.93-1.54,1.842-3.546,2.739-6.012c0.598-1.524,1.549-4.819,2.847-9.881c1.199-4.704,2.048-7.756,2.547-9.15
		c1.101-3.083,2.206-5.802,3.322-8.153c1.116-2.354,2.424-4.729,3.921-7.132c-5.956-0.031-10.147,0.503-12.576,1.605
		c-3.462,1.559-5.189,3.765-5.189,6.62c0,0.847,0.23,2.354,0.695,4.526c0.167,0.814,0.25,1.48,0.25,1.997
		c0,0.78-0.257,1.428-0.772,1.947c-0.515,0.519-1.169,0.777-1.967,0.777c-0.928,0-1.709-0.389-2.341-1.167
		c-0.631-0.777-0.947-1.897-0.947-3.357c0-3.019,0.971-5.965,2.913-8.835c1.943-2.875,4.49-4.981,7.646-6.329
		c3.152-1.344,7.632-2.021,13.444-2.021c0.931,0,1.794,0.021,2.59,0.05c2.886,0.165,4.499,0.243,4.829,0.243
		c1.294,0,2.274-0.269,2.939-0.803c0.664-0.534,0.995-1.225,0.995-2.067c0-0.324-0.1-0.908-0.3-1.753
		c-0.198-0.778-0.299-1.33-0.299-1.654c0-0.845,0.268-1.543,0.8-2.095c0.528-0.55,1.191-0.827,1.991-0.827
		c0.826,0,1.542,0.34,2.14,1.021c0.597,0.682,0.895,1.607,0.895,2.776c0,2.368-1.16,4.46-3.485,6.277
		C183.401,213.158,179.95,214.178,175.368,214.405z M123.68,240.788c4.648,0.096,7.82-0.324,9.513-1.266
		c1.693-0.941,2.539-2.19,2.539-3.749c0-1.136-0.415-2.068-1.247-2.799c-0.828-0.729-1.94-1.096-3.336-1.096
		c-3.284,0-6.272,1.406-8.96,4.21c-2.69,2.808-4.036,6.081-4.036,9.81c0,2.922,0.998,5.922,2.989,9.005
		c1.992,3.085,4.631,5.551,7.917,7.4c3.287,1.851,6.674,2.774,10.16,2.774c3.385,0,6.822-0.973,10.308-2.92
		c-5.545-6.523-8.798-10.241-9.759-11.156c-1.893-1.79-4.083-3.453-6.573-4.985c-2.492-1.533-5.662-3.031-9.513-4.498V240.788z"/>
</g>
<g>
	<path stroke="#000000" stroke-width="2" stroke-miterlimit="10" d="M10.412,294.016c3.012,0,3.389-0.103,4.016-0.103
		c0.5,0,0.941,0.71,0.941,1.826c0,1.117-0.44,1.726-0.941,1.726c-0.627,0-1.004-0.51-6.086-0.51H8.028
		c-5.082,0-5.459,0.51-6.086,0.51c-0.501,0-0.941-0.608-0.941-1.726c0-1.116,0.44-1.826,0.941-1.826
		c0.627,0,1.005,0.103,4.015,0.103v-35.204c-3.01,0-3.388,0.103-4.015,0.103c-0.501,0-0.941-0.61-0.941-1.726
		s0.44-1.826,0.941-1.826c0.69,0,0.941,0.507,5.459,0.507c2.133,0,3.137-0.101,5.397-0.101c6.901,0,10.604,5.174,10.604,12.377
		s-3.702,12.479-10.604,12.479c-0.754,0-1.695,0-2.385,0V294.016z M10.412,277.783c0,0,1.631,0,2.385,0
		c4.517,0,6.148-2.639,6.148-9.638c0-6.797-1.631-9.435-6.148-9.435c-0.754,0-2.385,0-2.385,0V277.783z"/>
	<path stroke="#000000" stroke-width="2" stroke-miterlimit="10" d="M36.386,277.275v16.74c2.006,0,2.321-0.103,2.948-0.103
		c0.503,0,0.941,0.71,0.941,1.826c0,1.117-0.438,1.726-0.941,1.726c-0.627,0-1.317-0.51-5.019-0.51h-0.314
		c-5.082,0-5.458,0.51-6.086,0.51c-0.501,0-0.941-0.608-0.941-1.726c0-1.116,0.44-1.826,0.941-1.826
		c0.628,0,1.005,0.103,4.016,0.103v-35.204c-3.011,0-3.388,0.103-4.016,0.103c-0.501,0-0.941-0.61-0.941-1.726
		s0.44-1.826,0.941-1.826c0.628,0,1.005,0.507,6.086,0.507h0.314c4.078,0,4.392-0.507,5.019-0.507c0.503,0,0.941,0.711,0.941,1.826
		s-0.438,1.726-0.941,1.726c-0.627,0-1.254-0.103-2.948-0.103v14.914h11.105v-14.914c-1.946,0-2.322,0.103-2.95,0.103
		c-0.5,0-0.94-0.61-0.94-1.726s0.439-1.826,0.94-1.826c0.628,0,0.941,0.507,5.084,0.507h0.25c5.146,0,5.459-0.507,6.087-0.507
		c0.502,0,0.94,0.711,0.94,1.826s-0.438,1.726-0.94,1.726c-0.628,0-0.941-0.103-4.016-0.103v35.204c3.075,0,3.388-0.103,4.016-0.103
		c0.502,0,0.94,0.71,0.94,1.826c0,1.117-0.438,1.726-0.94,1.726c-0.628,0-0.941-0.51-6.087-0.51h-0.25
		c-4.08,0-4.456,0.51-5.084,0.51c-0.5,0-0.94-0.608-0.94-1.726c0-1.116,0.439-1.826,0.94-1.826c0.628,0,1.068,0.103,2.95,0.103
		v-16.74H36.386z"/>
	<path stroke="#000000" stroke-width="2" stroke-miterlimit="10" d="M74.342,297.971c-6.524,0-12.046-8.621-12.046-21.507
		c0-12.884,5.522-21.607,12.046-21.607c6.588,0,12.048,8.724,12.048,21.607C86.39,289.35,80.931,297.971,74.342,297.971z
		 M74.342,258.203c-4.58,0-7.027,4.465-7.027,18.261s2.448,18.261,7.027,18.261c4.581,0,7.029-4.465,7.029-18.261
		S78.923,258.203,74.342,258.203z"/>
	<path stroke="#000000" stroke-width="2" stroke-miterlimit="10" d="M111.343,269.363c-0.691,0-1.067-0.812-1.067-1.522
		c0-7.304-1.004-9.13-4.581-9.13h-2.635v35.305c3.012,0,3.389-0.103,4.017-0.103c0.5,0,0.941,0.71,0.941,1.826
		c0,1.117-0.44,1.726-0.941,1.726c-0.627,0-1.005-0.51-6.086-0.51h-0.251c-5.145,0-5.522,0.51-6.149,0.51
		c-0.439,0-0.941-0.608-0.941-1.726c0-1.116,0.502-1.826,0.941-1.826c0.627,0,1.005,0.103,4.015,0.103v-35.305h-2.572
		c-3.64,0-4.642,1.826-4.642,9.13c0,0.711-0.377,1.522-1.004,1.522c-0.692,0-1.005-0.812-1.005-1.522
		c0-1.015,0.251-3.854,0.251-8.015v-2.738c0-1.118,0.439-1.826,0.94-1.826c0.566,0,2.511,0.507,3.516,0.507h13.552
		c0.941,0,2.886-0.507,3.451-0.507c0.502,0,0.941,0.708,0.941,1.826v2.738c0,4.16,0.314,7,0.314,8.015
		C112.347,268.552,112.032,269.363,111.343,269.363z"/>
	<path stroke="#000000" stroke-width="2" stroke-miterlimit="10" d="M127.322,297.971c-6.525,0-12.047-8.621-12.047-21.507
		c0-12.884,5.522-21.607,12.047-21.607c6.588,0,12.047,8.724,12.047,21.607C139.369,289.35,133.91,297.971,127.322,297.971z
		 M127.322,258.203c-4.581,0-7.028,4.465-7.028,18.261s2.447,18.261,7.028,18.261c4.581,0,7.027-4.465,7.027-18.261
		S131.902,258.203,127.322,258.203z"/>
	<path stroke="#000000" stroke-width="2" stroke-miterlimit="10" d="M144.888,276.464c0-12.884,5.521-21.607,12.047-21.607
		c3.576,0,5.271,1.928,6.776,3.955c0.314-0.404,0.564-0.812,0.564-1.623c0-0.912,0.062-1.927,1.003-1.927
		c0.879,0,1.004,0.708,1.004,1.826v12.58c0,0.812-0.062,1.927-1.004,1.927c-0.941,0-1.003-1.115-1.003-1.927
		c0-6.291-3.012-11.465-6.965-11.465c-4.767,0-7.403,4.869-7.403,18.261c0,13.29,2.636,18.261,7.403,18.261
		c2.699,0,5.396-1.725,5.396-11.465c-2.07,0-2.383,0.104-3.012,0.104c-0.439,0-0.94-0.711-0.94-1.725
		c0-1.117,0.501-1.826,0.94-1.826c0.628,0,0.88,0.508,5.083,0.508h0.25c4.331,0,4.455-0.508,5.083-0.508
		c0.502,0,0.941,0.709,0.941,1.826c0,1.014-0.439,1.725-0.941,1.725c-0.628,0-0.941-0.104-2.949-0.104
		c0,3.045-0.627,14.711-10.227,14.711C150.41,297.971,144.888,289.35,144.888,276.464z"/>
	<path stroke="#000000" stroke-width="2" stroke-miterlimit="10" d="M195.709,286.305c0,4.262-0.188,4.769-0.188,6.899
		c0,1.623,0.375,2.636,1.127,2.636c0.817,0,0.941-0.912,0.941-2.131c0-0.912,0.44-1.623,0.941-1.623
		c0.565,0,1.005,0.711,1.005,1.522c0,3.146-1.819,4.666-3.138,4.666c-3.138,0-5.145-2.332-5.145-11.97
		c0-6.695-0.69-9.333-5.27-9.333h-2.448v17.044c3.013,0,3.389-0.103,4.016-0.103c0.501,0,0.941,0.71,0.941,1.826
		c0,1.117-0.44,1.726-0.941,1.726c-0.627,0-1.003-0.51-6.086-0.51h-0.314c-5.081,0-5.459,0.51-6.086,0.51
		c-0.501,0-0.941-0.608-0.941-1.726c0-1.116,0.44-1.826,0.941-1.826c0.627,0,1.005,0.103,4.015,0.103v-35.204
		c-3.01,0-3.388,0.103-4.015,0.103c-0.501,0-0.941-0.61-0.941-1.726s0.44-1.826,0.941-1.826c0.627,0,1.005,0.507,5.772,0.507
		c1.255,0,3.576-0.203,5.146-0.203c6.712,0,9.725,4.565,9.725,9.841c0,4.668-2.949,8.522-5.961,9.537
		C193.701,276.667,195.709,281.536,195.709,286.305z M185.292,258.711c-0.438,0-1.756,0-1.756,0v15.318h1.38
		c4.016,0,6.149-2.027,6.149-8.218C191.065,260.942,189.622,258.711,185.292,258.711z"/>
	<path stroke="#000000" stroke-width="2" stroke-miterlimit="10" d="M206.562,285.29l-2.321,8.726c1.569,0,2.321-0.103,2.948-0.103
		c0.439,0,0.941,0.71,0.941,1.826c0,1.117-0.502,1.726-0.941,1.726c-0.627,0-0.941-0.51-4.077-0.51c-3.013,0-3.389,0.51-3.954,0.51
		c-0.502,0-0.94-0.608-0.94-1.726c0-1.116,0.438-1.826,0.94-1.826c0.628,0,1.13,0.103,2.823,0.103l10.166-37.739
		c0.188-0.914,0.375-1.42,1.003-1.42s0.754,0.405,1.005,1.42l9.85,37.739c2.009,0,2.197-0.103,2.824-0.103
		c0.439,0,0.941,0.71,0.941,1.826c0,1.117-0.502,1.726-0.941,1.726c-0.627,0-0.815-0.51-5.082-0.51h-0.062
		c-4.017,0-4.393,0.51-5.02,0.51c-0.44,0-0.941-0.608-0.941-1.726c0-1.116,0.501-1.826,0.941-1.826c0.627,0,0.815,0.103,2.635,0.103
		l-2.259-8.726H206.562z M216.099,281.737l-4.204-16.331l-4.392,16.331H216.099z"/>
	<path stroke="#000000" stroke-width="2" stroke-miterlimit="10" d="M239.062,294.016c3.013,0,3.388-0.103,4.017-0.103
		c0.501,0,0.941,0.71,0.941,1.826c0,1.117-0.44,1.726-0.941,1.726c-0.629,0-1.004-0.51-6.087-0.51h-0.313
		c-5.082,0-5.46,0.51-6.087,0.51c-0.502,0-0.941-0.608-0.941-1.726c0-1.116,0.439-1.826,0.941-1.826
		c0.627,0,1.005,0.103,4.016,0.103v-35.204c-3.011,0-3.389,0.103-4.016,0.103c-0.502,0-0.941-0.61-0.941-1.726
		s0.439-1.826,0.941-1.826c0.691,0,0.941,0.507,5.46,0.507c2.132,0,3.136-0.101,5.396-0.101c6.901,0,10.603,5.174,10.603,12.377
		s-3.701,12.479-10.603,12.479c-0.755,0-1.696,0-2.386,0V294.016z M239.062,277.783c0,0,1.631,0,2.386,0
		c4.516,0,6.146-2.639,6.146-9.638c0-6.797-1.631-9.435-6.146-9.435c-0.755,0-2.386,0-2.386,0V277.783z"/>
	<path stroke="#000000" stroke-width="2" stroke-miterlimit="10" d="M265.036,277.275v16.74c2.006,0,2.32-0.103,2.947-0.103
		c0.503,0,0.941,0.71,0.941,1.826c0,1.117-0.438,1.726-0.941,1.726c-0.627,0-1.316-0.51-5.019-0.51h-0.314
		c-5.081,0-5.459,0.51-6.086,0.51c-0.501,0-0.941-0.608-0.941-1.726c0-1.116,0.44-1.826,0.941-1.826
		c0.627,0,1.005,0.103,4.016,0.103v-35.204c-3.011,0-3.389,0.103-4.016,0.103c-0.501,0-0.941-0.61-0.941-1.726
		s0.44-1.826,0.941-1.826c0.627,0,1.005,0.507,6.086,0.507h0.314c4.077,0,4.392-0.507,5.019-0.507c0.503,0,0.941,0.711,0.941,1.826
		s-0.438,1.726-0.941,1.726c-0.627,0-1.254-0.103-2.947-0.103v14.914h11.105v-14.914c-1.946,0-2.322,0.103-2.95,0.103
		c-0.501,0-0.941-0.61-0.941-1.726s0.44-1.826,0.941-1.826c0.628,0,0.941,0.507,5.084,0.507h0.249c5.146,0,5.459-0.507,6.087-0.507
		c0.503,0,0.94,0.711,0.94,1.826s-0.438,1.726-0.94,1.726c-0.628,0-0.941-0.103-4.016-0.103v35.204c3.074,0,3.388-0.103,4.016-0.103
		c0.503,0,0.94,0.71,0.94,1.826c0,1.117-0.438,1.726-0.94,1.726c-0.628,0-0.941-0.51-6.087-0.51h-0.249
		c-4.08,0-4.456,0.51-5.084,0.51c-0.501,0-0.941-0.608-0.941-1.726c0-1.116,0.44-1.826,0.941-1.826c0.628,0,1.067,0.103,2.95,0.103
		v-16.74H265.036z"/>
	<path stroke="#000000" stroke-width="2" stroke-miterlimit="10" d="M291.635,258.812c-2.068,0-2.195,0.103-2.823,0.103
		c-0.501,0-0.941-0.61-0.941-1.726s0.44-1.826,0.941-1.826c0.628,0,0.755,0.507,5.084,0.507h0.501c4.078,0,4.455-0.507,5.082-0.507
		c0.439,0,0.941,0.711,0.941,1.826s-0.502,1.726-0.941,1.726c-0.627,0-0.627-0.103-2.636-0.103l5.333,14.203l5.397-14.203
		c-1.568,0-2.322,0.103-2.95,0.103c-0.438,0-0.941-0.61-0.941-1.726s0.503-1.826,0.941-1.826c0.628,0,0.941,0.507,3.953,0.507
		c0,0,0.314,0,0.377,0c3.012,0,3.389-0.507,3.953-0.507c0.503,0,0.94,0.711,0.94,1.826s-0.438,1.726-0.94,1.726
		c-0.628,0-1.129-0.103-2.824-0.103l-6.713,17.755v17.449c3.011,0,3.388-0.103,4.015-0.103c0.44,0,0.941,0.71,0.941,1.826
		c0,1.117-0.501,1.726-0.941,1.726c-0.627,0-1.004-0.51-6.148-0.51h-0.25c-5.146,0-5.459,0.51-6.087,0.51
		c-0.502,0-0.941-0.608-0.941-1.726c0-1.116,0.439-1.826,0.941-1.826c0.628,0,0.94,0.103,4.016,0.103v-15.929L291.635,258.812z"/>
</g>
<g opacity="0.8">
	<path fill="#FFFFFF" d="M32.523,41.635c-0.486-1.425-0.646-2.924-0.889-4.576h-0.163c-1.615,3.601-5.492,5.626-9.856,5.626
		c-8.725,0-12.118-4.95-12.118-11.928c0-7.501,2.829-11.027,12.118-13.052l5.736-1.276c3.15-0.676,4.282-1.953,4.282-4.427
		c0-2.477-1.211-3.75-3.717-3.75c-2.746,0-4.039,1.125-4.12,5.401H11.195C11.195,2.026,21.293,0,27.917,0
		c10.181,0,17.289,2.476,17.289,13.053v19.805c0,3.751,0.161,6.676,1.373,8.777H32.523z M31.634,26.932v-4.877h-0.163
		c-0.806,1.051-2.826,0.976-4.928,1.875c-2.262,0.976-2.988,2.551-2.988,5.252c0,2.699,1.372,4.424,3.555,4.424
		C30.343,33.607,31.634,31.358,31.634,26.932z"/>
	<path fill="#FFFFFF" d="M72.919,14.854c0-3.375-0.97-4.802-3.556-4.802c-2.587,0-3.552,1.426-3.552,4.802v26.781H51.268V1.05
		h14.055v4.952h0.163C67.344,2.026,71.061,0,76.067,0c5.979,0,8.888,2.102,10.666,6.226C88.995,1.65,93.277,0,97.72,0
		c6.382,0,11.391,2.325,11.391,11.028v30.607H94.569V14.854c0-3.375-0.969-4.802-3.555-4.802c-2.586,0-3.554,1.426-3.554,4.802
		v26.781H72.919V14.854z"/>
	<path fill="#FFFFFF" d="M115.659,45.086c1.048,0.226,2.178,0.3,3.23,0.3c3.634,0,4.846-2.25,4.846-3.076
		c0-0.601-0.323-1.95-0.646-3L111.537,1.05h15.027l4.444,27.382h0.159l4.202-27.382h14.542l-11.712,41.936
		c-2.586,9.302-6.544,11.853-14.382,11.853c-3.07,0-5.734-0.075-8.157-0.3V45.086z"/>
</g>
</svg>
